<svg xmlns="http://www.w3.org/2000/svg" width="421.102" height="421.099" viewBox="0 0 421.102 421.099"><defs><style>.a{fill:#040714;}</style></defs><g transform="translate(0 -0.002)"><g transform="translate(0 0.002)"><path class="a" d="M276.855,208.261a26.592,26.592,0,1,0-26.592,26.592A26.623,26.623,0,0,0,276.855,208.261Zm-36.737,0A10.143,10.143,0,1,1,250.262,218.4,10.155,10.155,0,0,1,240.118,208.261Z" transform="translate(-39.711 -32.256)"/><path class="a" d="M420.462,297.123l-13.518-32.282,7.349-11.2a38.54,38.54,0,0,0,4.931-31.386l-6.831-24.767A45.966,45.966,0,0,0,393.1,171.14a8.215,8.215,0,0,0-5.109-1.294C384.127,88.855,325.253,19.869,245.147,4.053a8.225,8.225,0,0,0-3.186,16.138C317.167,35.04,371.753,101.55,371.753,178.337c0,2.275-.066,4.563-.16,6.843l-17.172,9.173a146.615,146.615,0,0,0,.883-16.016,145.01,145.01,0,0,0-2.374-26.157c-.034-.233-.079-.461-.132-.689C340.174,84.457,281.2,33.585,210.551,33.585c-70.675,0-129.673,50.916-142.263,117.991-.043.192-.082.383-.111.578A144.987,144.987,0,0,0,65.8,178.337a146.6,146.6,0,0,0,.884,16.016L49.5,185.176c-.095-2.271-.152-4.562-.152-6.839,0-76.886,54.669-143.412,129.99-158.184a8.225,8.225,0,1,0-3.166-16.142C95.942,19.747,36.976,88.752,33.108,169.847A8.212,8.212,0,0,0,28,171.141a45.966,45.966,0,0,0-19.289,26.35L1.879,222.258A38.536,38.536,0,0,0,6.81,253.644l7.349,11.2L.64,297.123a8.225,8.225,0,1,0,15.173,6.353l12.579-30.04,35.772,7.546L33.123,411.658a8.224,8.224,0,1,0,16,3.8L77.5,296.021a177.486,177.486,0,0,0,266.106.007l28.37,119.431a8.224,8.224,0,1,0,16-3.8l-31.04-130.674,35.772-7.546,12.579,30.04a8.225,8.225,0,0,0,15.173-6.353ZM385.506,196.4a8.228,8.228,0,0,0,3.085-2.873l1.9-3.024a29.541,29.541,0,0,1,6.039,11.366l6.831,24.768a22.087,22.087,0,0,1-2.825,17.987l-7.887,12.018-42.931,9.057-7.6-7.815a31.3,31.3,0,0,1-8.911-21.941V216.1a5.342,5.342,0,0,1,4.009-5.173l1.936-.5a19.924,19.924,0,0,0,19.338.4Zm-282.143,13.3h48.846A27.12,27.12,0,0,1,179.3,236.784v66.035A127.621,127.621,0,0,1,102.806,248a48.113,48.113,0,0,0,1.537-12.059V216.1A21.769,21.769,0,0,0,103.363,209.695Zm48.846-16.449h-69.1a129.012,129.012,0,0,1,.447-33.178l83.511-20.149a186.261,186.261,0,0,1,86.973,0l83.511,20.149a128.646,128.646,0,0,1,.442,33.179h-69.1a43.588,43.588,0,0,0-43.538,43.538v69a128.538,128.538,0,0,1-29.608,0v-69A43.588,43.588,0,0,0,152.209,193.246Zm89.6,43.538a27.12,27.12,0,0,1,27.089-27.089h48.846a21.745,21.745,0,0,0-.98,6.408v19.837A48.114,48.114,0,0,0,318.3,248a127.617,127.617,0,0,1-76.493,54.82ZM210.551,50.034A128.529,128.529,0,0,1,333.668,142.21L257.9,123.927a202.787,202.787,0,0,0-94.688,0L87.434,142.21A128.528,128.528,0,0,1,210.551,50.034ZM17.736,226.632l6.831-24.768A29.552,29.552,0,0,1,30.607,190.5l1.9,3.024A8.235,8.235,0,0,0,35.6,196.4L62.61,210.825a19.926,19.926,0,0,0,19.338-.4l1.937.5a5.342,5.342,0,0,1,4.009,5.173v19.837a31.3,31.3,0,0,1-8.911,21.941l-7.6,7.815-42.931-9.057-7.887-12.018A22.087,22.087,0,0,1,17.736,226.632ZM210.551,339.538a161.534,161.534,0,0,1-127.358-62.4l7.58-7.792a48.7,48.7,0,0,0,3.795-4.42,144.669,144.669,0,0,0,231.968,0,48.481,48.481,0,0,0,3.795,4.421l7.586,7.8A161.985,161.985,0,0,1,210.551,339.538Z" transform="translate(0 -0.686)"/><path class="a" d="M254.228,16.451h.2a8.225,8.225,0,1,0,0-16.449h-.2a8.225,8.225,0,1,0,0,16.449Z" transform="translate(-43.676 -0.002)"/></g></g></svg>